ply
format ascii 1.0
comment Created by Blender 2.79 (sub 0) - www.blender.org, source file: ''
element vertex 676
property float x
property float y
property float z
element face 1250
property list uchar uint vertex_indices
end_header
0.838051 0.533312 0.000000
0.844327 0.535828 0.000000
0.809016 0.587787 0.000000
0.863691 0.476338 0.000000
0.876306 0.481755 0.000000
0.885840 0.417119 0.000000
0.904826 0.425781 0.000000
0.904419 0.355918 0.000000
0.929776 0.368126 0.000000
0.919360 0.293009 0.000000
0.951056 0.309018 0.000000
0.930612 0.228674 0.000000
0.968583 0.248691 0.000000
0.938139 0.163198 0.000000
0.982287 0.187383 0.000000
0.941918 0.096877 0.000000
0.992115 0.125335 0.000000
0.941943 0.030007 0.000000
0.998027 0.062792 0.000000
0.938222 -0.037111 0.000000
1.000000 0.000001 0.000000
0.930776 -0.104176 0.000000
0.998027 -0.062789 0.000000
0.919645 -0.170886 0.000000
0.992115 -0.125332 0.000000
0.904880 -0.236941 0.000000
0.982288 -0.187380 0.000000
0.951057 -0.309016 0.000000
0.968584 -0.248689 0.000000
0.886548 -0.302041 0.000000
0.929777 -0.368123 0.000000
0.864730 -0.365894 0.000000
0.904828 -0.425778 0.000000
0.839520 -0.428209 0.000000
0.876307 -0.481753 0.000000
0.811026 -0.488704 0.000000
0.844329 -0.535826 0.000000
0.779369 -0.547104 0.000000
0.809018 -0.587784 0.000000
0.744680 -0.603143 0.000000
0.770514 -0.637423 0.000000
0.707106 -0.656565 0.000000
0.728970 -0.684546 0.000000
0.666802 -0.707125 0.000000
0.684548 -0.728968 0.000000
0.623934 -0.754591 0.000000
0.637425 -0.770512 0.000000
0.578678 -0.798743 0.000000
0.587786 -0.809016 0.000000
0.531221 -0.839378 0.000000
0.535828 -0.844327 0.000000
0.796464 0.582653 0.000000
0.770512 0.637425 0.000000
0.819103 0.524820 0.000000
0.838351 0.464209 0.000000
0.854146 0.401119 0.000000
0.866440 0.335861 0.000000
0.875196 0.268753 0.000000
0.880397 0.200128 0.000000
0.882036 0.130323 0.000000
0.880122 0.059683 0.000000
0.874678 -0.011445 0.000000
0.865742 -0.082707 0.000000
0.853366 -0.153751 0.000000
0.837613 -0.224225 0.000000
0.818563 -0.293777 0.000000
0.796306 -0.362062 0.000000
0.770947 -0.428738 0.000000
0.742602 -0.493470 0.000000
0.711398 -0.555934 0.000000
0.677473 -0.615814 0.000000
0.640977 -0.672806 0.000000
0.602068 -0.726620 0.000000
0.560915 -0.776980 0.000000
0.517692 -0.823626 0.000000
0.472583 -0.866317 0.000000
0.481755 -0.876306 0.000000
0.751709 0.629584 0.000000
0.728967 0.684548 0.000000
0.771239 0.571034 0.000000
0.787497 0.509211 0.000000
0.800437 0.444444 0.000000
0.810030 0.377076 0.000000
0.816257 0.307464 0.000000
0.819115 0.235979 0.000000
0.818614 0.162998 0.000000
0.814779 0.088910 0.000000
0.807647 0.014109 0.000000
0.797270 -0.061009 0.000000
0.783711 -0.136042 0.000000
0.767048 -0.210591 0.000000
0.747369 -0.284256 0.000000
0.724775 -0.356643 0.000000
0.699379 -0.427362 0.000000
0.671304 -0.496032 0.000000
0.640684 -0.562280 0.000000
0.607661 -0.625746 0.000000
0.572388 -0.686081 0.000000
0.535025 -0.742953 0.000000
0.495739 -0.796046 0.000000
0.454706 -0.845063 0.000000
0.412106 -0.889725 0.000000
0.425780 -0.904827 0.000000
0.703963 0.673919 0.000000
0.684546 0.728970 0.000000
0.720287 0.614799 0.000000
0.733477 0.551948 0.000000
0.743504 0.485721 0.000000
0.750355 0.416492 0.000000
0.754028 0.344653 0.000000
0.754536 0.270608 0.000000
0.751905 0.194773 0.000000
0.746174 0.117575 0.000000
0.737394 0.039448 0.000000
0.725629 -0.039168 0.000000
0.710956 -0.117830 0.000000
0.693462 -0.196093 0.000000
0.673247 -0.273516 0.000000
0.650419 -0.349658 0.000000
0.625098 -0.424088 0.000000
0.597415 -0.496379 0.000000
0.567507 -0.566117 0.000000
0.535520 -0.632899 0.000000
0.501609 -0.696337 0.000000
0.465935 -0.756060 0.000000
0.428664 -0.811715 0.000000
0.389969 -0.862969 0.000000
0.350027 -0.909512 0.000000
0.368126 -0.929776 0.000000
0.653414 0.715483 0.000000
0.637423 0.770514 0.000000
0.666449 0.655942 0.000000
0.676505 0.592250 0.000000
0.683570 0.524787 0.000000
0.687648 0.453955 0.000000
0.688753 0.380173 0.000000
0.686914 0.303879 0.000000
0.682171 0.225522 0.000000
0.674576 0.145563 0.000000
0.664195 0.064473 0.000000
0.651103 -0.017270 0.000000
0.635388 -0.099185 0.000000
0.617148 -0.180788 0.000000
0.596489 -0.261598 0.000000
0.573531 -0.341135 0.000000
0.548398 -0.418928 0.000000
0.521225 -0.494510 0.000000
0.492154 -0.567430 0.000000
0.461334 -0.637247 0.000000
0.428920 -0.703536 0.000000
0.395072 -0.765890 0.000000
0.359954 -0.823924 0.000000
0.323737 -0.877274 0.000000
0.286591 -0.925598 0.000000
0.309018 -0.951056 0.000000
0.600261 0.754113 0.000000
0.587784 0.809018 0.000000
0.609937 0.694301 0.000000
0.616806 0.629959 0.000000
0.620874 0.561488 0.000000
0.622159 0.489315 0.000000
0.620692 0.413885 0.000000
0.616516 0.335661 0.000000
0.609686 0.255123 0.000000
0.600268 0.172764 0.000000
0.588339 0.089085 0.000000
0.573985 0.004598 0.000000
0.557305 -0.080182 0.000000
0.538405 -0.164737 0.000000
0.517400 -0.248550 0.000000
0.494415 -0.331108 0.000000
0.469581 -0.411902 0.000000
0.443036 -0.490433 0.000000
0.414925 -0.566214 0.000000
0.385397 -0.638771 0.000000
0.354608 -0.707647 0.000000
0.322715 -0.772404 0.000000
0.289882 -0.832626 0.000000
0.256271 -0.887920 0.000000
0.222049 -0.937920 0.000000
0.248691 -0.968583 0.000000
0.544714 0.789656 0.000000
0.535825 0.844329 0.000000
0.550974 0.729724 0.000000
0.554615 0.664925 0.000000
0.555661 0.595680 0.000000
0.554144 0.522434 0.000000
0.550112 0.445654 0.000000
0.543621 0.365829 0.000000
0.534739 0.283462 0.000000
0.523544 0.199071 0.000000
0.510126 0.113188 0.000000
0.494581 0.026351 0.000000
0.477015 -0.060895 0.000000
0.457544 -0.148002 0.000000
0.436291 -0.234424 0.000000
0.413383 -0.319615 0.000000
0.388958 -0.403038 0.000000
0.363156 -0.484163 0.000000
0.336122 -0.562473 0.000000
0.308008 -0.637465 0.000000
0.278965 -0.708654 0.000000
0.249151 -0.775575 0.000000
0.218722 -0.837785 0.000000
0.187837 -0.894867 0.000000
0.156655 -0.946430 0.000000
0.187382 -0.982287 0.000000
0.486993 0.821972 0.000000
0.481752 0.876308 0.000000
0.489793 0.762071 0.000000
0.490179 0.697011 0.000000
0.488189 0.627227 0.000000
0.483874 0.553180 0.000000
0.477292 0.475357 0.000000
0.468515 0.394263 0.000000
0.457624 0.310424 0.000000
0.444707 0.224380 0.000000
0.429864 0.136686 0.000000
0.413202 0.047902 0.000000
0.394835 -0.041401 0.000000
0.374886 -0.130651 0.000000
0.353481 -0.219275 0.000000
0.330756 -0.306703 0.000000
0.306847 -0.392371 0.000000
0.281899 -0.475726 0.000000
0.256058 -0.556223 0.000000
0.229472 -0.633336 0.000000
0.202291 -0.706555 0.000000
0.174669 -0.775392 0.000000
0.146757 -0.839382 0.000000
0.118706 -0.898086 0.000000
0.090668 -0.951094 0.000000
0.125334 -0.992115 0.000000
0.427325 0.850933 0.000000
0.425778 0.904828 0.000000
0.426635 0.791215 0.000000
0.423751 0.726090 0.000000
0.418726 0.656005 0.000000
0.411624 0.581433 0.000000
0.402520 0.502875 0.000000
0.391496 0.420851 0.000000
0.378645 0.335904 0.000000
0.364067 0.248592 0.000000
0.347871 0.159485 0.000000
0.330171 0.069166 0.000000
0.311090 -0.021777 0.000000
0.290755 -0.112750 0.000000
0.269299 -0.203162 0.000000
0.246858 -0.292422 0.000000
0.223573 -0.379944 0.000000
0.199588 -0.465154 0.000000
0.175048 -0.547488 0.000000
0.150099 -0.626398 0.000000
0.124888 -0.701357 0.000000
0.099563 -0.771855 0.000000
0.074269 -0.837410 0.000000
0.049150 -0.897565 0.000000
0.024348 -0.951893 0.000000
0.062792 -0.998027 0.000000
0.365946 0.876425 0.000000
0.368123 0.929777 0.000000
0.361750 0.817041 0.000000
0.355593 0.752048 0.000000
0.347544 0.681900 0.000000
0.337680 0.607081 0.000000
0.326090 0.528099 0.000000
0.312867 0.445489 0.000000
0.298114 0.359802 0.000000
0.281943 0.271610 0.000000
0.264469 0.181497 0.000000
0.245815 0.090060 0.000000
0.226109 -0.002099 0.000000
0.205484 -0.094372 0.000000
0.184075 -0.186151 0.000000
0.162021 -0.276828 0.000000
0.139464 -0.365805 0.000000
0.116547 -0.452489 0.000000
0.093412 -0.536302 0.000000
0.070203 -0.616680 0.000000
0.047062 -0.693080 0.000000
0.024130 -0.764978 0.000000
0.001546 -0.831877 0.000000
-0.020556 -0.893306 0.000000
-0.042043 -0.948825 0.000000
0.000001 -1.000000 0.000000
0.303098 0.898347 0.000000
0.309015 0.951057 0.000000
0.295393 0.839446 0.000000
0.285974 0.774781 0.000000
0.274924 0.704811 0.000000
0.262335 0.630022 0.000000
0.248304 0.550932 0.000000
0.232938 0.468078 0.000000
0.216349 0.382023 0.000000
0.198658 0.293344 0.000000
0.179988 0.202635 0.000000
0.160467 0.110500 0.000000
0.140229 0.017553 0.000000
0.119410 -0.075589 0.000000
0.098147 -0.168307 0.000000
0.076581 -0.259984 0.000000
0.054852 -0.350010 0.000000
0.033103 -0.437781 0.000000
0.011472 -0.522710 0.000000
-0.009902 -0.604220 0.000000
-0.030881 -0.681758 0.000000
-0.051332 -0.754789 0.000000
-0.071126 -0.822805 0.000000
-0.090137 -0.885326 0.000000
-0.108244 -0.941902 0.000000
-0.062790 -0.998027 0.000000
0.239029 0.916613 0.000000
0.248688 0.968584 0.000000
0.227827 0.858343 0.000000
0.215170 0.794201 0.000000
0.201155 0.724646 0.000000
0.185884 0.650167 0.000000
0.169469 0.571281 0.000000
0.152025 0.488531 0.000000
0.133674 0.402479 0.000000
0.114542 0.313708 0.000000
0.094761 0.222814 0.000000
0.074464 0.130407 0.000000
0.053788 0.037104 0.000000
0.032871 -0.056474 0.000000
0.011853 -0.149701 0.000000
-0.009127 -0.241955 0.000000
-0.029928 -0.332621 0.000000
-0.050414 -0.421089 0.000000
-0.070449 -0.506765 0.000000
-0.089898 -0.589067 0.000000
-0.108632 -0.667434 0.000000
-0.126527 -0.741327 0.000000
-0.143460 -0.810230 0.000000
-0.159319 -0.873656 0.000000
-0.173993 -0.931150 0.000000
-0.125332 -0.992115 0.000000
0.173991 0.931150 0.000000
0.187379 0.982288 0.000000
0.159317 0.873656 0.000000
0.143459 0.810230 0.000000
0.126525 0.741327 0.000000
0.108631 0.667435 0.000000
0.089896 0.589067 0.000000
0.070447 0.506765 0.000000
0.050413 0.421090 0.000000
0.029927 0.332622 0.000000
0.009125 0.241956 0.000000
-0.032873 0.056474 0.000000
-0.011855 0.149701 0.000000
-0.053790 -0.037103 0.000000
-0.094763 -0.222814 0.000000
-0.074466 -0.130406 0.000000
-0.133675 -0.402478 0.000000
-0.114544 -0.313707 0.000000
-0.152026 -0.488530 0.000000
-0.169470 -0.571280 0.000000
-0.185886 -0.650166 0.000000
-0.201156 -0.724645 0.000000
-0.215171 -0.794200 0.000000
-0.227828 -0.858343 0.000000
-0.239030 -0.916612 0.000000
-0.248689 -0.968583 0.000000
0.125331 0.992115 0.000000
0.108243 0.941902 0.000000
0.090136 0.885326 0.000000
0.071125 0.822805 0.000000
0.051331 0.754789 0.000000
0.030879 0.681758 0.000000
0.009900 0.604221 0.000000
-0.011473 0.522710 0.000000
-0.033104 0.437782 0.000000
-0.054854 0.350010 0.000000
-0.076582 0.259985 0.000000
-0.098148 0.168307 0.000000
-0.140231 -0.017553 0.000000
-0.119411 0.075589 0.000000
-0.160469 -0.110500 0.000000
-0.179989 -0.202634 0.000000
-0.198660 -0.293343 0.000000
-0.216351 -0.382022 0.000000
-0.232939 -0.468078 0.000000
-0.248305 -0.550931 0.000000
-0.262336 -0.630022 0.000000
-0.274926 -0.704810 0.000000
-0.285976 -0.774781 0.000000
-0.295394 -0.839446 0.000000
-0.303099 -0.898346 0.000000
-0.309016 -0.951057 0.000000
0.062788 0.998027 0.000000
0.042042 0.948825 0.000000
0.020554 0.893306 0.000000
-0.001547 0.831877 0.000000
-0.024132 0.764979 0.000000
-0.047063 0.693080 0.000000
-0.070204 0.616681 0.000000
-0.093413 0.536302 0.000000
-0.116548 0.452489 0.000000
-0.139466 0.365805 0.000000
-0.162023 0.276829 0.000000
-0.184077 0.186151 0.000000
-0.205486 0.094373 0.000000
-0.245817 -0.090059 0.000000
-0.226111 0.002100 0.000000
-0.264470 -0.181497 0.000000
-0.281944 -0.271609 0.000000
-0.298116 -0.359801 0.000000
-0.312868 -0.445488 0.000000
-0.326091 -0.528099 0.000000
-0.337682 -0.607080 0.000000
-0.347545 -0.681899 0.000000
-0.355594 -0.752047 0.000000
-0.361751 -0.817040 0.000000
-0.365947 -0.876424 0.000000
-0.368124 -0.929777 0.000000
0.000000 1.000000 0.000000
-0.024347 0.951893 0.000000
-0.049149 0.897565 0.000000
-0.074268 0.837410 0.000000
-0.099562 0.771855 0.000000
-0.124888 0.701357 0.000000
-0.150098 0.626399 0.000000
-0.175047 0.547488 0.000000
-0.199588 0.465154 0.000000
-0.223573 0.379944 0.000000
-0.246858 0.292422 0.000000
-0.269298 0.203163 0.000000
-0.311090 0.021777 0.000000
-0.290755 0.112751 0.000000
-0.330171 -0.069166 0.000000
-0.347871 -0.159485 0.000000
-0.364067 -0.248591 0.000000
-0.378645 -0.335904 0.000000
-0.391496 -0.420850 0.000000
-0.402520 -0.502874 0.000000
-0.411625 -0.581432 0.000000
-0.418726 -0.656004 0.000000
-0.423751 -0.726090 0.000000
-0.426636 -0.791215 0.000000
-0.427326 -0.850932 0.000000
-0.425779 -0.904827 0.000000
-0.062791 0.998027 0.000000
-0.090667 0.951094 0.000000
-0.118705 0.898086 0.000000
-0.146756 0.839382 0.000000
-0.174668 0.775392 0.000000
-0.202291 0.706556 0.000000
-0.229471 0.633336 0.000000
-0.256057 0.556223 0.000000
-0.281899 0.475726 0.000000
-0.306847 0.392372 0.000000
-0.330755 0.306703 0.000000
-0.353481 0.219275 0.000000
-0.374886 0.130651 0.000000
-0.413202 -0.047901 0.000000
-0.394835 0.041402 0.000000
-0.429864 -0.136685 0.000000
-0.444707 -0.224380 0.000000
-0.457624 -0.310423 0.000000
-0.468516 -0.394262 0.000000
-0.477293 -0.475356 0.000000
-0.483874 -0.553180 0.000000
-0.488190 -0.627226 0.000000
-0.490180 -0.697010 0.000000
-0.489794 -0.762071 0.000000
-0.486994 -0.821972 0.000000
-0.481753 -0.876307 0.000000
-0.125333 0.992115 0.000000
-0.156654 0.946430 0.000000
-0.187836 0.894867 0.000000
-0.218721 0.837786 0.000000
-0.249150 0.775576 0.000000
-0.278965 0.708655 0.000000
-0.308007 0.637466 0.000000
-0.336122 0.562474 0.000000
-0.363155 0.484164 0.000000
-0.388958 0.403039 0.000000
-0.413383 0.319616 0.000000
-0.436291 0.234425 0.000000
-0.457544 0.148003 0.000000
-0.494581 -0.026350 0.000000
-0.477015 0.060896 0.000000
-0.510126 -0.113187 0.000000
-0.523545 -0.199070 0.000000
-0.534739 -0.283461 0.000000
-0.543621 -0.365828 0.000000
-0.550113 -0.445654 0.000000
-0.554145 -0.522433 0.000000
-0.555661 -0.595679 0.000000
-0.554616 -0.664924 0.000000
-0.550975 -0.729723 0.000000
-0.544715 -0.789656 0.000000
-0.535826 -0.844328 0.000000
-0.187381 0.982287 0.000000
-0.222048 0.937920 0.000000
-0.256270 0.887920 0.000000
-0.289881 0.832626 0.000000
-0.322715 0.772404 0.000000
-0.354607 0.707647 0.000000
-0.385396 0.638771 0.000000
-0.414924 0.566214 0.000000
-0.443036 0.490434 0.000000
-0.469581 0.411902 0.000000
-0.494415 0.331109 0.000000
-0.517400 0.248551 0.000000
-0.538405 0.164738 0.000000
-0.573985 -0.004598 0.000000
-0.557305 0.080182 0.000000
-0.588339 -0.089085 0.000000
-0.600269 -0.172763 0.000000
-0.609687 -0.255123 0.000000
-0.616517 -0.335660 0.000000
-0.620692 -0.413884 0.000000
-0.622159 -0.489314 0.000000
-0.620874 -0.561487 0.000000
-0.616807 -0.629958 0.000000
-0.609938 -0.694301 0.000000
-0.600262 -0.754113 0.000000
-0.587785 -0.809017 0.000000
-0.248690 0.968583 0.000000
-0.286590 0.925598 0.000000
-0.323736 0.877274 0.000000
-0.359953 0.823925 0.000000
-0.395071 0.765891 0.000000
-0.428919 0.703536 0.000000
-0.461334 0.637247 0.000000
-0.492154 0.567431 0.000000
-0.521225 0.494511 0.000000
-0.548398 0.418928 0.000000
-0.573531 0.341136 0.000000
-0.596489 0.261599 0.000000
-0.635388 0.099186 0.000000
-0.617147 0.180789 0.000000
-0.651103 0.017271 0.000000
-0.664195 -0.064472 0.000000
-0.674576 -0.145562 0.000000
-0.682171 -0.225521 0.000000
-0.686914 -0.303878 0.000000
-0.688754 -0.380172 0.000000
-0.687649 -0.453954 0.000000
-0.683571 -0.524786 0.000000
-0.676506 -0.592249 0.000000
-0.666450 -0.655942 0.000000
-0.653414 -0.715483 0.000000
-0.637423 -0.770514 0.000000
-0.309017 0.951057 0.000000
-0.350026 0.909512 0.000000
-0.389968 0.862970 0.000000
-0.428663 0.811716 0.000000
-0.465934 0.756061 0.000000
-0.501608 0.696338 0.000000
-0.535520 0.632900 0.000000
-0.567506 0.566118 0.000000
-0.597415 0.496380 0.000000
-0.625098 0.424089 0.000000
-0.650418 0.349659 0.000000
-0.673246 0.273517 0.000000
-0.710956 0.117830 0.000000
-0.693462 0.196094 0.000000
-0.725629 0.039169 0.000000
-0.737394 -0.039447 0.000000
-0.746174 -0.117574 0.000000
-0.751905 -0.194772 0.000000
-0.754536 -0.270607 0.000000
-0.754028 -0.344652 0.000000
-0.750355 -0.416492 0.000000
-0.743504 -0.485720 0.000000
-0.733477 -0.551947 0.000000
-0.720288 -0.614799 0.000000
-0.703964 -0.673918 0.000000
-0.684547 -0.728969 0.000000
-0.368125 0.929776 0.000000
-0.412105 0.889726 0.000000
-0.454705 0.845064 0.000000
-0.495738 0.796047 0.000000
-0.535024 0.742954 0.000000
-0.572387 0.686081 0.000000
-0.607661 0.625746 0.000000
-0.640684 0.562281 0.000000
-0.671304 0.496033 0.000000
-0.699379 0.427363 0.000000
-0.724775 0.356644 0.000000
-0.747368 0.284257 0.000000
-0.783711 0.136043 0.000000
-0.767047 0.210592 0.000000
-0.797270 0.061010 0.000000
-0.807647 -0.014108 0.000000
-0.814779 -0.088909 0.000000
-0.818615 -0.162997 0.000000
-0.819115 -0.235978 0.000000
-0.816257 -0.307463 0.000000
-0.810031 -0.377075 0.000000
-0.800438 -0.444443 0.000000
-0.787497 -0.509211 0.000000
-0.771239 -0.571033 0.000000
-0.751710 -0.629583 0.000000
-0.728968 -0.684548 0.000000
-0.425779 0.904827 0.000000
-0.472582 0.866317 0.000000
-0.517691 0.823627 0.000000
-0.560914 0.776981 0.000000
-0.602068 0.726621 0.000000
-0.640977 0.672807 0.000000
-0.677473 0.615815 0.000000
-0.711397 0.555935 0.000000
-0.742602 0.493471 0.000000
-0.770947 0.428739 0.000000
-0.796306 0.362063 0.000000
-0.818563 0.293778 0.000000
-0.837613 0.224226 0.000000
-0.865742 0.082708 0.000000
-0.853366 0.153752 0.000000
-0.874678 0.011446 0.000000
-0.880122 -0.059682 0.000000
-0.882036 -0.130322 0.000000
-0.880397 -0.200127 0.000000
-0.875197 -0.268752 0.000000
-0.866440 -0.335860 0.000000
-0.854147 -0.401119 0.000000
-0.838352 -0.464208 0.000000
-0.819104 -0.524819 0.000000
-0.796465 -0.582652 0.000000
-0.770513 -0.637425 0.000000
-0.481754 0.876307 0.000000
-0.531220 0.839379 0.000000
-0.578677 0.798744 0.000000
-0.623933 0.754592 0.000000
-0.666801 0.707126 0.000000
-0.707106 0.656566 0.000000
-0.744680 0.603144 0.000000
-0.779368 0.547105 0.000000
-0.811026 0.488705 0.000000
-0.839520 0.428210 0.000000
-0.864730 0.365895 0.000000
-0.886548 0.302042 0.000000
-0.904880 0.236942 0.000000
-0.930776 0.104177 0.000000
-0.919645 0.170887 0.000000
-0.938221 0.037112 0.000000
-0.941943 -0.030006 0.000000
-0.941919 -0.096876 0.000000
-0.938139 -0.163197 0.000000
-0.930613 -0.228673 0.000000
-0.919360 -0.293008 0.000000
-0.904419 -0.355917 0.000000
-0.885841 -0.417118 0.000000
-0.863691 -0.476337 0.000000
-0.838052 -0.533311 0.000000
-0.809017 -0.587786 0.000000
-0.535827 0.844328 0.000000
-0.587785 0.809017 0.000000
-0.637424 0.770513 0.000000
-0.684547 0.728969 0.000000
-0.728969 0.684547 0.000000
-0.770513 0.637424 0.000000
-0.809017 0.587785 0.000000
-0.844328 0.535827 0.000000
-0.876307 0.481753 0.000000
-0.904827 0.425779 0.000000
-0.929777 0.368124 0.000000
-0.951057 0.309017 0.000000
-0.968583 0.248690 0.000000
-0.992115 0.125333 0.000000
-0.982287 0.187381 0.000000
-0.998027 0.062790 0.000000
-1.000000 -0.000000 0.000000
-0.998027 -0.062791 0.000000
-0.992115 -0.125334 0.000000
-0.982287 -0.187382 0.000000
-0.968583 -0.248690 0.000000
-0.951056 -0.309018 0.000000
-0.929776 -0.368125 0.000000
-0.904827 -0.425780 0.000000
-0.876306 -0.481754 0.000000
-0.844328 -0.535827 0.000000
-0.187380 -0.982287 0.000000
3 0 1 2
3 3 4 0
3 5 6 3
3 7 8 5
3 9 10 7
3 11 12 9
3 13 14 11
3 15 16 13
3 17 18 15
3 19 20 17
3 21 22 19
3 23 24 21
3 25 26 23
3 25 27 28
3 29 30 27
3 31 32 30
3 33 34 32
3 35 36 34
3 37 38 36
3 39 40 38
3 41 42 40
3 43 44 42
3 45 46 44
3 47 48 46
3 49 50 48
3 51 2 52
3 53 0 51
3 54 3 53
3 55 5 54
3 56 7 55
3 57 9 56
3 58 11 57
3 59 13 58
3 60 15 59
3 61 17 60
3 62 19 61
3 63 21 62
3 64 23 63
3 64 29 25
3 65 31 29
3 66 33 31
3 67 35 33
3 68 37 35
3 69 39 37
3 70 41 39
3 71 43 41
3 72 45 43
3 73 47 45
3 74 49 47
3 75 76 49
3 77 52 78
3 79 51 77
3 80 53 79
3 81 54 80
3 82 55 81
3 83 56 82
3 84 57 83
3 85 58 84
3 86 59 85
3 87 60 86
3 88 61 87
3 89 62 88
3 90 63 89
3 90 65 64
3 91 66 65
3 92 67 66
3 93 68 67
3 94 69 68
3 95 70 69
3 96 71 70
3 97 72 71
3 98 73 72
3 99 74 73
3 100 75 74
3 101 102 75
3 103 78 104
3 105 77 103
3 106 79 105
3 107 80 106
3 108 81 107
3 109 82 108
3 110 83 109
3 111 84 110
3 112 85 111
3 113 86 112
3 114 87 113
3 115 88 114
3 116 89 115
3 116 91 90
3 117 92 91
3 118 93 92
3 119 94 93
3 120 95 94
3 121 96 95
3 122 97 96
3 123 98 97
3 124 99 98
3 125 100 99
3 126 101 100
3 127 128 101
3 129 104 130
3 131 103 129
3 132 105 131
3 133 106 132
3 134 107 133
3 135 108 134
3 136 109 135
3 137 110 136
3 138 111 137
3 139 112 138
3 140 113 139
3 141 114 140
3 142 115 141
3 142 117 116
3 143 118 117
3 144 119 118
3 145 120 119
3 146 121 120
3 147 122 121
3 148 123 122
3 149 124 123
3 150 125 124
3 151 126 125
3 152 127 126
3 153 154 127
3 155 130 156
3 157 129 155
3 158 131 157
3 159 132 158
3 160 133 159
3 161 134 160
3 162 135 161
3 163 136 162
3 164 137 163
3 165 138 164
3 166 139 165
3 167 140 166
3 168 141 167
3 168 143 142
3 169 144 143
3 170 145 144
3 171 146 145
3 172 147 146
3 173 148 147
3 174 149 148
3 175 150 149
3 176 151 150
3 177 152 151
3 178 153 152
3 179 180 153
3 181 156 182
3 183 155 181
3 184 157 183
3 185 158 184
3 186 159 185
3 187 160 186
3 188 161 187
3 189 162 188
3 190 163 189
3 191 164 190
3 192 165 191
3 193 166 192
3 194 167 193
3 194 169 168
3 195 170 169
3 196 171 170
3 197 172 171
3 198 173 172
3 199 174 173
3 200 175 174
3 201 176 175
3 202 177 176
3 203 178 177
3 204 179 178
3 205 206 179
3 207 182 208
3 209 181 207
3 210 183 209
3 211 184 210
3 212 185 211
3 213 186 212
3 214 187 213
3 215 188 214
3 216 189 215
3 217 190 216
3 218 191 217
3 219 192 218
3 220 193 219
3 220 195 194
3 221 196 195
3 222 197 196
3 223 198 197
3 224 199 198
3 225 200 199
3 226 201 200
3 227 202 201
3 228 203 202
3 229 204 203
3 230 205 204
3 231 232 205
3 233 208 234
3 235 207 233
3 236 209 235
3 237 210 236
3 238 211 237
3 239 212 238
3 240 213 239
3 241 214 240
3 242 215 241
3 243 216 242
3 244 217 243
3 245 218 244
3 245 220 219
3 246 221 220
3 247 222 221
3 248 223 222
3 249 224 223
3 250 225 224
3 251 226 225
3 252 227 226
3 253 228 227
3 254 229 228
3 255 230 229
3 256 231 230
3 257 258 231
3 259 234 260
3 261 233 259
3 262 235 261
3 263 236 262
3 264 237 263
3 265 238 264
3 266 239 265
3 267 240 266
3 268 241 267
3 269 242 268
3 270 243 269
3 271 244 270
3 272 245 271
3 272 247 246
3 273 248 247
3 274 249 248
3 275 250 249
3 276 251 250
3 277 252 251
3 278 253 252
3 279 254 253
3 280 255 254
3 281 256 255
3 282 257 256
3 283 284 257
3 285 260 286
3 287 259 285
3 288 261 287
3 289 262 288
3 290 263 289
3 291 264 290
3 292 265 291
3 293 266 292
3 294 267 293
3 295 268 294
3 296 269 295
3 297 270 296
3 297 272 271
3 298 273 272
3 299 274 273
3 300 275 274
3 301 276 275
3 302 277 276
3 303 278 277
3 304 279 278
3 305 280 279
3 306 281 280
3 307 282 281
3 308 283 282
3 309 310 283
3 311 286 312
3 313 285 311
3 314 287 313
3 315 288 314
3 316 289 315
3 317 290 316
3 318 291 317
3 319 292 318
3 320 293 319
3 321 294 320
3 322 295 321
3 323 296 322
3 324 297 323
3 324 299 298
3 325 300 299
3 326 301 300
3 327 302 301
3 328 303 302
3 329 304 303
3 330 305 304
3 331 306 305
3 332 307 306
3 333 308 307
3 334 309 308
3 335 336 309
3 337 312 338
3 337 313 311
3 339 314 313
3 340 315 314
3 341 316 315
3 342 317 316
3 343 318 317
3 344 319 318
3 345 320 319
3 346 321 320
3 347 322 321
3 348 322 349
3 350 323 348
3 350 325 324
3 351 325 352
3 351 327 326
3 353 327 354
3 355 328 353
3 356 329 355
3 357 330 356
3 358 331 357
3 359 332 358
3 360 333 359
3 361 334 360
3 362 335 361
3 363 337 338
3 364 339 337
3 365 340 339
3 366 341 340
3 367 342 341
3 368 343 342
3 369 344 343
3 370 345 344
3 371 346 345
3 372 347 346
3 373 349 347
3 374 348 349
3 375 348 376
3 377 350 375
3 378 352 377
3 379 351 378
3 380 354 379
3 381 353 380
3 382 355 381
3 383 356 382
3 384 357 383
3 385 358 384
3 386 359 385
3 387 360 386
3 388 361 387
3 389 364 363
3 390 365 364
3 391 366 365
3 392 367 366
3 393 368 367
3 394 369 368
3 395 370 369
3 396 371 370
3 397 372 371
3 398 373 372
3 399 374 373
3 400 376 374
3 401 375 376
3 402 375 403
3 404 377 402
3 405 378 404
3 406 379 405
3 407 380 406
3 408 381 407
3 409 382 408
3 410 383 409
3 411 384 410
3 412 385 411
3 413 386 412
3 414 387 413
3 415 390 389
3 416 391 390
3 417 392 391
3 418 393 392
3 419 394 393
3 420 395 394
3 421 396 395
3 422 397 396
3 423 398 397
3 424 399 398
3 425 400 399
3 426 401 400
3 427 401 428
3 429 403 427
3 430 402 429
3 431 404 430
3 432 405 431
3 433 406 432
3 434 407 433
3 435 408 434
3 436 409 435
3 437 410 436
3 438 411 437
3 439 412 438
3 440 413 439
3 441 416 415
3 442 417 416
3 443 418 417
3 444 419 418
3 445 420 419
3 446 421 420
3 447 422 421
3 448 423 422
3 449 424 423
3 450 425 424
3 451 426 425
3 452 428 426
3 453 427 428
3 454 427 455
3 456 429 454
3 457 430 456
3 458 431 457
3 459 432 458
3 460 433 459
3 461 434 460
3 462 435 461
3 463 436 462
3 464 437 463
3 465 438 464
3 466 439 465
3 467 442 441
3 468 443 442
3 469 444 443
3 470 445 444
3 471 446 445
3 472 447 446
3 473 448 447
3 474 449 448
3 475 450 449
3 476 451 450
3 477 452 451
3 478 453 452
3 479 455 453
3 480 455 481
3 482 454 480
3 483 456 482
3 484 457 483
3 485 458 484
3 486 459 485
3 487 460 486
3 488 461 487
3 489 462 488
3 490 463 489
3 491 464 490
3 492 465 491
3 493 468 467
3 494 469 468
3 495 470 469
3 496 471 470
3 497 472 471
3 498 473 472
3 499 474 473
3 500 475 474
3 501 476 475
3 502 477 476
3 503 478 477
3 504 479 478
3 505 481 479
3 506 481 507
3 508 480 506
3 509 482 508
3 510 483 509
3 511 484 510
3 512 485 511
3 513 486 512
3 514 487 513
3 515 488 514
3 516 489 515
3 517 490 516
3 518 491 517
3 519 494 493
3 520 495 494
3 521 496 495
3 522 497 496
3 523 498 497
3 524 499 498
3 525 500 499
3 526 501 500
3 527 502 501
3 528 503 502
3 529 504 503
3 530 505 504
3 531 505 532
3 533 507 531
3 534 506 533
3 535 508 534
3 536 509 535
3 537 510 536
3 538 511 537
3 539 512 538
3 540 513 539
3 541 514 540
3 542 515 541
3 543 516 542
3 544 517 543
3 545 520 519
3 546 521 520
3 547 522 521
3 548 523 522
3 549 524 523
3 550 525 524
3 551 526 525
3 552 527 526
3 553 528 527
3 554 529 528
3 555 530 529
3 556 532 530
3 557 532 558
3 559 531 557
3 560 533 559
3 561 534 560
3 562 535 561
3 563 536 562
3 564 537 563
3 565 538 564
3 566 539 565
3 567 540 566
3 568 541 567
3 569 542 568
3 570 543 569
3 571 546 545
3 572 547 546
3 573 548 547
3 574 549 548
3 575 550 549
3 576 551 550
3 577 552 551
3 578 553 552
3 579 554 553
3 580 555 554
3 581 556 555
3 582 558 556
3 583 558 584
3 585 557 583
3 586 559 585
3 587 560 586
3 588 561 587
3 589 562 588
3 590 563 589
3 591 564 590
3 592 565 591
3 593 566 592
3 594 567 593
3 595 568 594
3 596 569 595
3 597 572 571
3 598 573 572
3 599 574 573
3 600 575 574
3 601 576 575
3 602 577 576
3 603 578 577
3 604 579 578
3 605 580 579
3 606 581 580
3 607 582 581
3 608 584 582
3 609 583 584
3 610 583 611
3 612 585 610
3 613 586 612
3 614 587 613
3 615 588 614
3 616 589 615
3 617 590 616
3 618 591 617
3 619 592 618
3 620 593 619
3 621 594 620
3 622 595 621
3 623 598 597
3 624 599 598
3 625 600 599
3 626 601 600
3 627 602 601
3 628 603 602
3 629 604 603
3 630 605 604
3 631 606 605
3 632 607 606
3 633 608 607
3 634 609 608
3 635 611 609
3 636 611 637
3 638 610 636
3 639 612 638
3 640 613 639
3 641 614 640
3 642 615 641
3 643 616 642
3 644 617 643
3 645 618 644
3 646 619 645
3 647 620 646
3 648 621 647
3 649 624 623
3 650 625 624
3 651 626 625
3 652 627 626
3 653 628 627
3 654 629 628
3 655 630 629
3 656 631 630
3 657 632 631
3 658 633 632
3 659 634 633
3 660 635 634
3 661 637 635
3 662 637 663
3 664 636 662
3 665 638 664
3 666 639 665
3 667 640 666
3 668 641 667
3 669 642 668
3 670 643 669
3 671 644 670
3 672 645 671
3 673 646 672
3 674 647 673
3 0 4 1
3 3 6 4
3 5 8 6
3 7 10 8
3 9 12 10
3 11 14 12
3 13 16 14
3 15 18 16
3 17 20 18
3 19 22 20
3 21 24 22
3 23 26 24
3 25 28 26
3 25 29 27
3 29 31 30
3 31 33 32
3 33 35 34
3 35 37 36
3 37 39 38
3 39 41 40
3 41 43 42
3 43 45 44
3 45 47 46
3 47 49 48
3 49 76 50
3 51 0 2
3 53 3 0
3 54 5 3
3 55 7 5
3 56 9 7
3 57 11 9
3 58 13 11
3 59 15 13
3 60 17 15
3 61 19 17
3 62 21 19
3 63 23 21
3 64 25 23
3 64 65 29
3 65 66 31
3 66 67 33
3 67 68 35
3 68 69 37
3 69 70 39
3 70 71 41
3 71 72 43
3 72 73 45
3 73 74 47
3 74 75 49
3 75 102 76
3 77 51 52
3 79 53 51
3 80 54 53
3 81 55 54
3 82 56 55
3 83 57 56
3 84 58 57
3 85 59 58
3 86 60 59
3 87 61 60
3 88 62 61
3 89 63 62
3 90 64 63
3 90 91 65
3 91 92 66
3 92 93 67
3 93 94 68
3 94 95 69
3 95 96 70
3 96 97 71
3 97 98 72
3 98 99 73
3 99 100 74
3 100 101 75
3 101 128 102
3 103 77 78
3 105 79 77
3 106 80 79
3 107 81 80
3 108 82 81
3 109 83 82
3 110 84 83
3 111 85 84
3 112 86 85
3 113 87 86
3 114 88 87
3 115 89 88
3 116 90 89
3 116 117 91
3 117 118 92
3 118 119 93
3 119 120 94
3 120 121 95
3 121 122 96
3 122 123 97
3 123 124 98
3 124 125 99
3 125 126 100
3 126 127 101
3 127 154 128
3 129 103 104
3 131 105 103
3 132 106 105
3 133 107 106
3 134 108 107
3 135 109 108
3 136 110 109
3 137 111 110
3 138 112 111
3 139 113 112
3 140 114 113
3 141 115 114
3 142 116 115
3 142 143 117
3 143 144 118
3 144 145 119
3 145 146 120
3 146 147 121
3 147 148 122
3 148 149 123
3 149 150 124
3 150 151 125
3 151 152 126
3 152 153 127
3 153 180 154
3 155 129 130
3 157 131 129
3 158 132 131
3 159 133 132
3 160 134 133
3 161 135 134
3 162 136 135
3 163 137 136
3 164 138 137
3 165 139 138
3 166 140 139
3 167 141 140
3 168 142 141
3 168 169 143
3 169 170 144
3 170 171 145
3 171 172 146
3 172 173 147
3 173 174 148
3 174 175 149
3 175 176 150
3 176 177 151
3 177 178 152
3 178 179 153
3 179 206 180
3 181 155 156
3 183 157 155
3 184 158 157
3 185 159 158
3 186 160 159
3 187 161 160
3 188 162 161
3 189 163 162
3 190 164 163
3 191 165 164
3 192 166 165
3 193 167 166
3 194 168 167
3 194 195 169
3 195 196 170
3 196 197 171
3 197 198 172
3 198 199 173
3 199 200 174
3 200 201 175
3 201 202 176
3 202 203 177
3 203 204 178
3 204 205 179
3 205 232 206
3 207 181 182
3 209 183 181
3 210 184 183
3 211 185 184
3 212 186 185
3 213 187 186
3 214 188 187
3 215 189 188
3 216 190 189
3 217 191 190
3 218 192 191
3 219 193 192
3 220 194 193
3 220 221 195
3 221 222 196
3 222 223 197
3 223 224 198
3 224 225 199
3 225 226 200
3 226 227 201
3 227 228 202
3 228 229 203
3 229 230 204
3 230 231 205
3 231 258 232
3 233 207 208
3 235 209 207
3 236 210 209
3 237 211 210
3 238 212 211
3 239 213 212
3 240 214 213
3 241 215 214
3 242 216 215
3 243 217 216
3 244 218 217
3 245 219 218
3 245 246 220
3 246 247 221
3 247 248 222
3 248 249 223
3 249 250 224
3 250 251 225
3 251 252 226
3 252 253 227
3 253 254 228
3 254 255 229
3 255 256 230
3 256 257 231
3 257 284 258
3 259 233 234
3 261 235 233
3 262 236 235
3 263 237 236
3 264 238 237
3 265 239 238
3 266 240 239
3 267 241 240
3 268 242 241
3 269 243 242
3 270 244 243
3 271 245 244
3 272 246 245
3 272 273 247
3 273 274 248
3 274 275 249
3 275 276 250
3 276 277 251
3 277 278 252
3 278 279 253
3 279 280 254
3 280 281 255
3 281 282 256
3 282 283 257
3 283 310 284
3 285 259 260
3 287 261 259
3 288 262 261
3 289 263 262
3 290 264 263
3 291 265 264
3 292 266 265
3 293 267 266
3 294 268 267
3 295 269 268
3 296 270 269
3 297 271 270
3 297 298 272
3 298 299 273
3 299 300 274
3 300 301 275
3 301 302 276
3 302 303 277
3 303 304 278
3 304 305 279
3 305 306 280
3 306 307 281
3 307 308 282
3 308 309 283
3 309 336 310
3 311 285 286
3 313 287 285
3 314 288 287
3 315 289 288
3 316 290 289
3 317 291 290
3 318 292 291
3 319 293 292
3 320 294 293
3 321 295 294
3 322 296 295
3 323 297 296
3 324 298 297
3 324 325 299
3 325 326 300
3 326 327 301
3 327 328 302
3 328 329 303
3 329 330 304
3 330 331 305
3 331 332 306
3 332 333 307
3 333 334 308
3 334 335 309
3 335 675 336
3 337 311 312
3 337 339 313
3 339 340 314
3 340 341 315
3 341 342 316
3 342 343 317
3 343 344 318
3 344 345 319
3 345 346 320
3 346 347 321
3 347 349 322
3 348 323 322
3 350 324 323
3 350 352 325
3 351 326 325
3 351 354 327
3 353 328 327
3 355 329 328
3 356 330 329
3 357 331 330
3 358 332 331
3 359 333 332
3 360 334 333
3 361 335 334
3 362 675 335
3 363 364 337
3 364 365 339
3 365 366 340
3 366 367 341
3 367 368 342
3 368 369 343
3 369 370 344
3 370 371 345
3 371 372 346
3 372 373 347
3 373 374 349
3 374 376 348
3 375 350 348
3 377 352 350
3 378 351 352
3 379 354 351
3 380 353 354
3 381 355 353
3 382 356 355
3 383 357 356
3 384 358 357
3 385 359 358
3 386 360 359
3 387 361 360
3 388 362 361
3 389 390 364
3 390 391 365
3 391 392 366
3 392 393 367
3 393 394 368
3 394 395 369
3 395 396 370
3 396 397 371
3 397 398 372
3 398 399 373
3 399 400 374
3 400 401 376
3 401 403 375
3 402 377 375
3 404 378 377
3 405 379 378
3 406 380 379
3 407 381 380
3 408 382 381
3 409 383 382
3 410 384 383
3 411 385 384
3 412 386 385
3 413 387 386
3 414 388 387
3 415 416 390
3 416 417 391
3 417 418 392
3 418 419 393
3 419 420 394
3 420 421 395
3 421 422 396
3 422 423 397
3 423 424 398
3 424 425 399
3 425 426 400
3 426 428 401
3 427 403 401
3 429 402 403
3 430 404 402
3 431 405 404
3 432 406 405
3 433 407 406
3 434 408 407
3 435 409 408
3 436 410 409
3 437 411 410
3 438 412 411
3 439 413 412
3 440 414 413
3 441 442 416
3 442 443 417
3 443 444 418
3 444 445 419
3 445 446 420
3 446 447 421
3 447 448 422
3 448 449 423
3 449 450 424
3 450 451 425
3 451 452 426
3 452 453 428
3 453 455 427
3 454 429 427
3 456 430 429
3 457 431 430
3 458 432 431
3 459 433 432
3 460 434 433
3 461 435 434
3 462 436 435
3 463 437 436
3 464 438 437
3 465 439 438
3 466 440 439
3 467 468 442
3 468 469 443
3 469 470 444
3 470 471 445
3 471 472 446
3 472 473 447
3 473 474 448
3 474 475 449
3 475 476 450
3 476 477 451
3 477 478 452
3 478 479 453
3 479 481 455
3 480 454 455
3 482 456 454
3 483 457 456
3 484 458 457
3 485 459 458
3 486 460 459
3 487 461 460
3 488 462 461
3 489 463 462
3 490 464 463
3 491 465 464
3 492 466 465
3 493 494 468
3 494 495 469
3 495 496 470
3 496 497 471
3 497 498 472
3 498 499 473
3 499 500 474
3 500 501 475
3 501 502 476
3 502 503 477
3 503 504 478
3 504 505 479
3 505 507 481
3 506 480 481
3 508 482 480
3 509 483 482
3 510 484 483
3 511 485 484
3 512 486 485
3 513 487 486
3 514 488 487
3 515 489 488
3 516 490 489
3 517 491 490
3 518 492 491
3 519 520 494
3 520 521 495
3 521 522 496
3 522 523 497
3 523 524 498
3 524 525 499
3 525 526 500
3 526 527 501
3 527 528 502
3 528 529 503
3 529 530 504
3 530 532 505
3 531 507 505
3 533 506 507
3 534 508 506
3 535 509 508
3 536 510 509
3 537 511 510
3 538 512 511
3 539 513 512
3 540 514 513
3 541 515 514
3 542 516 515
3 543 517 516
3 544 518 517
3 545 546 520
3 546 547 521
3 547 548 522
3 548 549 523
3 549 550 524
3 550 551 525
3 551 552 526
3 552 553 527
3 553 554 528
3 554 555 529
3 555 556 530
3 556 558 532
3 557 531 532
3 559 533 531
3 560 534 533
3 561 535 534
3 562 536 535
3 563 537 536
3 564 538 537
3 565 539 538
3 566 540 539
3 567 541 540
3 568 542 541
3 569 543 542
3 570 544 543
3 571 572 546
3 572 573 547
3 573 574 548
3 574 575 549
3 575 576 550
3 576 577 551
3 577 578 552
3 578 579 553
3 579 580 554
3 580 581 555
3 581 582 556
3 582 584 558
3 583 557 558
3 585 559 557
3 586 560 559
3 587 561 560
3 588 562 561
3 589 563 562
3 590 564 563
3 591 565 564
3 592 566 565
3 593 567 566
3 594 568 567
3 595 569 568
3 596 570 569
3 597 598 572
3 598 599 573
3 599 600 574
3 600 601 575
3 601 602 576
3 602 603 577
3 603 604 578
3 604 605 579
3 605 606 580
3 606 607 581
3 607 608 582
3 608 609 584
3 609 611 583
3 610 585 583
3 612 586 585
3 613 587 586
3 614 588 587
3 615 589 588
3 616 590 589
3 617 591 590
3 618 592 591
3 619 593 592
3 620 594 593
3 621 595 594
3 622 596 595
3 623 624 598
3 624 625 599
3 625 626 600
3 626 627 601
3 627 628 602
3 628 629 603
3 629 630 604
3 630 631 605
3 631 632 606
3 632 633 607
3 633 634 608
3 634 635 609
3 635 637 611
3 636 610 611
3 638 612 610
3 639 613 612
3 640 614 613
3 641 615 614
3 642 616 615
3 643 617 616
3 644 618 617
3 645 619 618
3 646 620 619
3 647 621 620
3 648 622 621
3 649 650 624
3 650 651 625
3 651 652 626
3 652 653 627
3 653 654 628
3 654 655 629
3 655 656 630
3 656 657 631
3 657 658 632
3 658 659 633
3 659 660 634
3 660 661 635
3 661 663 637
3 662 636 637
3 664 638 636
3 665 639 638
3 666 640 639
3 667 641 640
3 668 642 641
3 669 643 642
3 670 644 643
3 671 645 644
3 672 646 645
3 673 647 646
3 674 648 647
