ply
format ascii 1.0
comment Created by Blender 2.79 (sub 0) - www.blender.org, source file: ''
element vertex 642
property float x
property float y
property float z
element face 1280
property list uchar uint vertex_indices
end_header
0.687067 -0.301411 -0.753425
0.783538 -0.371500 -0.746290
0.650219 -0.414818 -0.746290
1.410674 -0.827136 -0.200644
1.362367 -0.792039 -0.304110
1.458838 -0.721949 -0.230411
0.567822 -0.301411 -0.746289
0.650219 -0.188003 -0.746290
0.783538 -0.231322 -0.746290
1.481614 -0.792040 -0.111165
0.410679 -1.152060 -0.200644
0.525602 -1.165362 -0.230412
0.465978 -1.208682 -0.111166
-0.207359 -0.301411 -0.200640
-0.184498 -0.414818 -0.230408
-0.244121 -0.371500 -0.111163
0.410679 0.549239 -0.200644
0.309884 0.492451 -0.230412
0.332658 0.562542 -0.111166
1.410674 0.224315 -0.200644
1.325520 0.302627 -0.230412
1.399217 0.302628 -0.111166
1.399217 -0.905450 -0.111166
0.332658 -1.165364 -0.111166
-0.244121 -0.231321 -0.111163
0.465978 0.605860 -0.111166
1.481614 0.189218 -0.111165
0.963455 -1.152060 0.693795
1.064250 -1.095272 0.723563
0.945004 -1.095271 0.797261
-0.036540 -0.827136 0.693795
0.048615 -0.905448 0.723563
0.011767 -0.792039 0.797260
-0.036540 0.224315 0.693795
-0.084704 0.119128 0.723562
0.011767 0.189218 0.797260
0.963455 0.549239 0.693795
0.848532 0.562541 0.723563
0.945004 0.492450 0.797261
1.581493 -0.301411 0.693791
1.558632 -0.188003 0.723559
1.521783 -0.301411 0.797256
0.806312 -0.301411 1.239440
0.723915 -0.188003 1.239440
0.687067 -0.301411 1.246575
0.938214 -0.301411 1.214524
0.853265 -0.180661 1.225247
1.076741 -0.301411 1.167528
0.994234 -0.174893 1.189783
1.212797 -0.301411 1.097227
1.138442 -0.171680 1.129429
1.336523 -0.301411 1.006974
1.274850 -0.171680 1.045125
1.440509 -0.301411 0.904090
1.393325 -0.174892 0.943133
1.488089 -0.180660 0.832906
0.764674 -0.062558 1.214525
0.902312 -0.048375 1.189784
0.807480 0.069188 1.167530
1.048867 -0.038548 1.141005
0.949929 0.087781 1.129431
0.849523 0.198585 1.097230
1.193796 -0.035008 1.066487
1.097018 0.098193 1.066488
0.992081 0.217513 1.045127
0.887756 0.316255 1.006978
1.325261 -0.038547 0.970185
1.237075 0.098194 0.979929
1.134276 0.224317 0.970187
1.025635 0.331182 0.943137
0.919889 0.415152 0.904095
1.434433 -0.048373 0.860917
1.359154 0.087784 0.876517
1.264897 0.217515 0.876518
1.158666 0.331184 0.860919
1.049433 0.423091 0.832910
1.518118 -0.062557 0.748874
1.456939 0.069189 0.766145
1.375256 0.198586 0.772312
1.277433 0.316257 0.766147
1.171039 0.415154 0.748877
1.064250 0.492451 0.723563
0.590596 -0.231322 1.239440
0.623584 -0.106035 1.225247
0.661659 0.029817 1.189784
0.703165 0.167958 1.129431
0.745317 0.297690 1.045127
0.784982 0.409374 0.943137
0.819751 0.497718 0.832910
0.483886 -0.153793 1.214525
0.512929 -0.018510 1.189784
0.371816 -0.072370 1.167530
0.548870 0.123909 1.141005
0.398151 0.068852 1.129431
0.261744 0.007601 1.097229
0.590288 0.262837 1.066489
0.433701 0.211958 1.066489
0.287795 0.149030 1.045127
0.161647 0.080325 1.006978
0.634277 0.386774 0.970188
0.476980 0.345160 0.979930
0.325263 0.286368 0.970188
0.190058 0.216068 0.943137
0.077520 0.141446 0.904094
0.677359 0.487567 0.860920
0.524604 0.458047 0.876519
0.372096 0.408494 0.876519
0.231165 0.342588 0.860920
0.110001 0.267102 0.832910
0.716706 0.562774 0.748877
0.572503 0.545300 0.766148
0.424198 0.507601 0.772313
0.282059 0.450927 0.766148
0.155126 0.380302 0.748877
0.048615 0.302627 0.723563
0.590596 -0.371500 1.239440
0.481635 -0.301411 1.225247
0.364199 -0.223219 1.189784
0.245644 -0.141056 1.129430
0.135288 -0.060879 1.045127
0.041327 0.011357 0.943136
-0.031948 0.071724 0.832909
0.483886 -0.449029 1.214525
0.364199 -0.379602 1.189784
0.371816 -0.530451 1.167530
0.239857 -0.301411 1.141004
0.245644 -0.461765 1.129430
0.261744 -0.610422 1.097229
0.120528 -0.219089 1.066488
0.120528 -0.383733 1.066488
0.135288 -0.541943 1.045127
0.161647 -0.683146 1.006978
0.016250 -0.138954 0.970186
0.007219 -0.301411 0.979928
0.016250 -0.463868 0.970186
0.041327 -0.614179 0.943136
0.077520 -0.744267 0.904094
-0.066296 -0.066835 0.860919
-0.085425 -0.221233 0.876518
-0.085425 -0.381588 0.876518
-0.066296 -0.535987 0.860919
-0.031948 -0.674546 0.832909
-0.125662 -0.006173 0.748876
-0.153606 -0.148716 0.766146
-0.163581 -0.301411 0.772311
-0.153606 -0.454105 0.766146
-0.125662 -0.596648 0.748876
-0.084704 -0.721949 0.723562
0.723915 -0.414818 1.239440
0.623584 -0.496786 1.225247
0.512929 -0.584312 1.189784
0.398151 -0.671673 1.129431
0.287795 -0.751851 1.045127
0.190058 -0.818889 0.943137
0.110001 -0.869924 0.832910
0.764674 -0.540263 1.214525
0.661659 -0.632638 1.189784
0.807480 -0.672009 1.167530
0.548870 -0.726730 1.141005
0.703165 -0.770780 1.129431
0.849523 -0.801406 1.097230
0.433701 -0.814779 1.066489
0.590288 -0.865658 1.066489
0.745317 -0.900511 1.045127
0.887756 -0.919077 1.006978
0.325263 -0.889189 0.970188
0.476980 -0.947982 0.979930
0.634277 -0.989596 0.970188
0.784982 -1.012195 0.943137
0.919889 -1.017974 0.904095
0.231165 -0.945409 0.860920
0.372096 -1.011315 0.876519
0.524604 -1.060869 0.876519
0.677359 -1.090389 0.860920
0.819751 -1.100539 0.832910
0.155126 -0.983123 0.748877
0.282059 -1.053749 0.766148
0.424198 -1.110422 0.772313
0.572503 -1.148122 0.766148
0.716706 -1.165595 0.748877
0.848532 -1.165362 0.723563
0.853265 -0.422160 1.225247
0.902312 -0.554446 1.189784
0.949929 -0.690603 1.129431
0.992081 -0.820334 1.045127
1.025635 -0.934004 0.943137
1.049433 -1.025913 0.832910
0.994234 -0.427929 1.189783
1.048867 -0.564274 1.141005
1.138442 -0.431141 1.129429
1.097018 -0.701015 1.066488
1.193796 -0.567813 1.066487
1.274850 -0.431142 1.045125
1.134276 -0.827139 0.970187
1.237075 -0.701016 0.979929
1.325261 -0.564275 0.970185
1.393325 -0.427929 0.943133
1.158666 -0.934005 0.860919
1.264897 -0.820337 0.876518
1.359154 -0.690605 0.876517
1.434433 -0.554448 0.860917
1.488089 -0.422161 0.832906
1.171038 -1.017975 0.748877
1.277433 -0.919079 0.766147
1.375256 -0.801408 0.772312
1.456939 -0.672010 0.766145
1.518118 -0.540264 0.748874
1.558632 -0.414819 0.723559
1.618255 -0.231321 0.604313
1.643693 -0.153792 0.497725
1.590807 -0.106034 0.627473
1.651778 -0.072369 0.376468
1.608575 -0.018508 0.512638
1.638125 0.007602 0.246575
1.605923 0.068853 0.382985
1.602165 0.080326 0.116682
1.579872 0.149032 0.246575
1.547765 0.141447 -0.004575
1.532357 0.216071 0.113543
1.469568 0.267104 -0.007358
1.542059 0.029818 0.645670
1.548871 0.123911 0.522972
1.469513 0.167961 0.655804
1.533727 0.211961 0.386634
1.463697 0.262841 0.526693
1.375257 0.297693 0.655805
1.496086 0.286371 0.246575
1.436949 0.345165 0.386635
1.357888 0.386778 0.522973
1.266293 0.409377 0.645672
1.440435 0.342591 0.113543
1.391361 0.408498 0.246575
1.323155 0.458052 0.382986
1.240887 0.487572 0.512640
1.152152 0.497721 0.627476
1.374226 0.380305 -0.004577
1.332906 0.450932 0.116682
1.274853 0.507606 0.246575
1.203013 0.545305 0.376469
1.123074 0.562777 0.497727
1.041476 0.562542 0.604317
0.908156 0.605860 0.604316
0.842282 0.654011 0.497727
0.780518 0.618471 0.627475
0.767343 0.686862 0.376469
0.702767 0.662417 0.512640
0.687067 0.698589 0.246575
0.618862 0.686891 0.382985
0.606791 0.686862 0.116682
0.534558 0.686891 0.246575
0.531852 0.654011 -0.004576
0.456119 0.662418 0.113543
0.388182 0.618473 -0.007359
0.636251 0.614089 0.645672
0.548869 0.649644 0.522972
0.482452 0.587782 0.655805
0.460449 0.662450 0.386634
0.390419 0.611570 0.526694
0.329943 0.538228 0.655806
0.378051 0.649646 0.246575
0.303860 0.611571 0.386634
0.239852 0.549238 0.522973
0.190055 0.469109 0.645672
0.307387 0.614092 0.113542
0.229540 0.587785 0.246575
0.161335 0.538231 0.382986
0.107838 0.469111 0.512640
0.070765 0.387855 0.627476
0.251060 0.562777 -0.004577
0.171121 0.545305 0.116681
0.099281 0.507606 0.246575
0.041228 0.450932 0.376469
-0.000091 0.380305 0.497727
-0.025083 0.302628 0.604317
-0.107480 0.189218 0.604316
-0.173631 0.141447 0.497726
-0.158915 0.071725 0.627474
-0.228031 0.080326 0.376468
-0.224737 0.011358 0.512639
-0.263991 0.007602 0.246575
-0.273941 -0.060878 0.382985
-0.277644 -0.072369 0.116683
-0.299992 -0.141056 0.246575
-0.269559 -0.153792 -0.004574
-0.300956 -0.223219 0.113544
-0.280155 -0.301411 -0.007355
-0.199329 -0.066834 0.645670
-0.260146 -0.138953 0.522971
-0.221835 -0.221233 0.655804
-0.299648 -0.219088 0.386634
-0.272899 -0.301411 0.526693
-0.221835 -0.381588 0.655804
-0.312933 -0.301411 0.246576
-0.299648 -0.383733 0.386635
-0.260146 -0.463869 0.522972
-0.199328 -0.535987 0.645671
-0.300956 -0.379603 0.113545
-0.299992 -0.461767 0.246577
-0.273941 -0.541944 0.382986
-0.224736 -0.614180 0.512640
-0.158915 -0.674547 0.627475
-0.269559 -0.449029 -0.004574
-0.277644 -0.530452 0.116683
-0.263991 -0.610423 0.246575
-0.228031 -0.683147 0.376468
-0.173631 -0.744268 0.497726
-0.107480 -0.792040 0.604316
-0.025083 -0.905450 0.604317
-0.000092 -0.983126 0.497727
0.070765 -0.990676 0.627475
0.041228 -1.053753 0.376469
0.107838 -1.071932 0.512640
0.099281 -1.110427 0.246575
0.161335 -1.141052 0.382985
0.171121 -1.148127 0.116681
0.229540 -1.190606 0.246575
0.251060 -1.165599 -0.004577
0.307386 -1.216913 0.113542
0.388182 -1.221294 -0.007359
0.190055 -1.071931 0.645672
0.239851 -1.152059 0.522972
0.329943 -1.141049 0.655805
0.303859 -1.214392 0.386634
0.390419 -1.214391 0.526693
0.482451 -1.190603 0.655805
0.378050 -1.252467 0.246575
0.460448 -1.265271 0.386634
0.548868 -1.252466 0.522972
0.636250 -1.216910 0.645671
0.456119 -1.265239 0.113542
0.534558 -1.289713 0.246575
0.618861 -1.289712 0.382985
0.702766 -1.265238 0.512640
0.780518 -1.221292 0.627475
0.531852 -1.256833 -0.004576
0.606791 -1.289684 0.116682
0.687067 -1.301411 0.246575
0.767343 -1.289684 0.376469
0.842282 -1.256833 0.497727
0.908156 -1.208682 0.604316
1.041476 -1.165364 0.604317
1.123074 -1.165599 0.497727
1.152152 -1.100542 0.627475
1.203013 -1.148127 0.376469
1.240887 -1.090393 0.512640
1.274853 -1.110427 0.246575
1.323155 -1.060874 0.382985
1.332906 -1.053753 0.116682
1.391360 -1.011320 0.246574
1.374226 -0.983126 -0.004577
1.440435 -0.945413 0.113542
1.469568 -0.869926 -0.007359
1.266293 -1.012199 0.645671
1.357887 -0.989600 0.522972
1.375257 -0.900515 0.655804
1.436949 -0.947987 0.386633
1.463697 -0.865663 0.526692
1.469513 -0.770783 0.655803
1.496086 -0.889194 0.246573
1.533726 -0.814784 0.386632
1.548871 -0.726734 0.522970
1.542059 -0.632640 0.645669
1.532357 -0.818893 0.113541
1.579872 -0.751855 0.246573
1.605923 -0.671676 0.382983
1.608575 -0.584314 0.512637
1.590807 -0.496788 0.627472
1.547765 -0.744268 -0.004575
1.602165 -0.683147 0.116682
1.638125 -0.610423 0.246575
1.651778 -0.530452 0.376468
1.643693 -0.449029 0.497725
1.618255 -0.371500 0.604313
0.985953 0.618473 0.500509
1.066748 0.614092 0.379608
1.144594 0.587785 0.246575
1.212800 0.538231 0.110165
1.266296 0.469111 -0.019490
1.303369 0.387855 -0.134325
0.918015 0.662418 0.379608
0.996084 0.649646 0.246575
0.839576 0.686891 0.246575
1.070274 0.611571 0.106516
0.913686 0.662450 0.106516
0.755273 0.686891 0.110165
1.134283 0.549238 -0.029822
0.983715 0.611570 -0.033544
0.825266 0.649644 -0.029822
0.671368 0.662417 -0.019489
1.184079 0.469109 -0.152521
1.044191 0.538228 -0.162655
0.891682 0.587782 -0.162655
0.737884 0.614089 -0.152521
0.593616 0.618471 -0.134325
1.219008 0.380302 -0.255726
1.092075 0.450927 -0.272997
0.949936 0.507601 -0.279162
0.801631 0.545300 -0.272997
0.657428 0.562773 -0.255727
0.525602 0.562541 -0.230412
-0.095434 0.267105 0.500509
-0.066301 0.342592 0.379608
-0.017226 0.408499 0.246575
0.050980 0.458053 0.110165
0.133248 0.487572 -0.019490
0.221983 0.497721 -0.134325
-0.158223 0.216071 0.379607
-0.121951 0.286373 0.246575
-0.205738 0.149033 0.246575
-0.062814 0.345166 0.106516
-0.159592 0.211963 0.106516
-0.231789 0.068855 0.110166
0.016248 0.386780 -0.029822
-0.089561 0.262843 -0.033543
-0.174736 0.123913 -0.029821
-0.234440 -0.018507 -0.019488
0.107843 0.409379 -0.152521
-0.001122 0.297695 -0.162654
-0.095378 0.167963 -0.162654
-0.167924 0.029820 -0.152519
-0.216672 -0.106033 -0.134322
0.203096 0.415154 -0.255726
0.096701 0.316257 -0.272996
-0.001122 0.198586 -0.279161
-0.082805 0.069189 -0.272995
-0.143984 -0.062557 -0.255723
-0.184498 -0.188003 -0.230408
-0.095434 -0.869926 0.500509
-0.158223 -0.818892 0.379607
-0.205738 -0.751854 0.246575
-0.231789 -0.671676 0.110166
-0.234441 -0.584314 -0.019488
-0.216672 -0.496788 -0.134322
-0.066301 -0.945413 0.379608
-0.121951 -0.889194 0.246575
-0.017226 -1.011320 0.246575
-0.159592 -0.814784 0.106516
-0.062814 -0.947988 0.106516
0.050980 -1.060874 0.110165
-0.174736 -0.726735 -0.029821
-0.089562 -0.865664 -0.033543
0.016248 -0.989601 -0.029822
0.133248 -1.090394 -0.019490
-0.167924 -0.632641 -0.152519
-0.095378 -0.770784 -0.162654
-0.001122 -0.900516 -0.162654
0.107843 -1.012200 -0.152521
0.221983 -1.100543 -0.134325
-0.143984 -0.540264 -0.255723
-0.082805 -0.672010 -0.272995
-0.001122 -0.801408 -0.279161
0.096701 -0.919079 -0.272996
0.203096 -1.017975 -0.255726
0.309884 -1.095272 -0.230412
0.985953 -1.221294 0.500509
0.918015 -1.265239 0.379608
0.839576 -1.289713 0.246575
0.755273 -1.289712 0.110165
0.671368 -1.265238 -0.019489
0.593616 -1.221292 -0.134325
1.066748 -1.216913 0.379608
0.996084 -1.252467 0.246575
1.144594 -1.190606 0.246575
0.913686 -1.265271 0.106516
1.070274 -1.214392 0.106516
1.212799 -1.141052 0.110165
0.825266 -1.252465 -0.029822
0.983715 -1.214391 -0.033544
1.134283 -1.152059 -0.029822
1.266296 -1.071932 -0.019490
0.737884 -1.216910 -0.152521
0.891682 -1.190603 -0.162655
1.044191 -1.141049 -0.162655
1.184079 -1.071931 -0.152521
1.303369 -0.990676 -0.134325
0.657428 -1.165595 -0.255727
0.801631 -1.148122 -0.272997
0.949936 -1.110422 -0.279162
1.092075 -1.053749 -0.272997
1.219008 -0.983123 -0.255726
1.325520 -0.905448 -0.230412
1.654289 -0.301411 0.500507
1.675090 -0.379603 0.379607
1.674126 -0.461766 0.246575
1.648075 -0.541944 0.110166
1.598871 -0.614180 -0.019488
1.533049 -0.674546 -0.134324
1.675090 -0.223219 0.379607
1.687067 -0.301411 0.246575
1.674126 -0.141056 0.246575
1.673782 -0.383733 0.106517
1.673782 -0.219088 0.106517
1.648075 -0.060878 0.110166
1.634280 -0.463868 -0.029821
1.647033 -0.301411 -0.033542
1.634280 -0.138953 -0.029821
1.598871 0.011358 -0.019488
1.573462 -0.535987 -0.152520
1.595969 -0.381588 -0.162653
1.595969 -0.221233 -0.162653
1.573462 -0.066834 -0.152520
1.533049 0.071725 -0.134324
1.499796 -0.596648 -0.255725
1.527740 -0.454105 -0.272995
1.537715 -0.301411 -0.279161
1.527740 -0.148716 -0.272995
1.499796 -0.006173 -0.255725
1.458838 0.119128 -0.230411
1.362367 0.189218 -0.304110
1.296614 0.141446 -0.410944
1.264133 0.267102 -0.339759
1.212487 0.080325 -0.513827
1.184076 0.216069 -0.449986
1.112390 0.007601 -0.604079
1.086339 0.149030 -0.551976
1.002318 -0.072370 -0.674379
0.975983 0.068852 -0.636280
0.890248 -0.153793 -0.721374
0.861205 -0.018508 -0.696633
0.750549 -0.106034 -0.732096
1.142969 0.342588 -0.367769
1.048871 0.286369 -0.477036
1.002038 0.408494 -0.383368
0.940433 0.211959 -0.573337
0.897154 0.345162 -0.486778
0.849530 0.458048 -0.383368
0.825264 0.123911 -0.647854
0.783846 0.262839 -0.573337
0.739856 0.386776 -0.477036
0.696775 0.487568 -0.367769
0.712474 0.029819 -0.696633
0.670968 0.167961 -0.636279
0.628817 0.297692 -0.551975
0.589152 0.409375 -0.449984
0.554383 0.497719 -0.339758
0.609460 -0.062558 -0.721374
0.566654 0.069188 -0.674379
0.524611 0.198585 -0.604079
0.486379 0.316255 -0.513828
0.454246 0.415152 -0.410944
0.429131 0.492450 -0.304110
0.324700 0.423091 -0.339759
0.348498 0.331182 -0.449986
0.382053 0.217513 -0.551976
0.424205 0.087781 -0.636280
0.471822 -0.048375 -0.696633
0.520869 -0.180661 -0.732096
0.215466 0.331183 -0.367769
0.239856 0.224316 -0.477036
0.109235 0.217513 -0.383367
0.277115 0.098193 -0.573337
0.137057 0.098193 -0.486778
0.014979 0.087782 -0.383366
0.325266 -0.038548 -0.647854
0.180337 -0.035009 -0.573336
0.048872 -0.038548 -0.477034
-0.060300 -0.048375 -0.367766
0.379899 -0.174893 -0.696633
0.235691 -0.171680 -0.636278
0.099283 -0.171680 -0.551974
-0.019191 -0.174893 -0.449982
-0.113955 -0.180661 -0.339755
0.435920 -0.301411 -0.721374
0.297394 -0.301411 -0.674378
0.161337 -0.301411 -0.604076
0.037611 -0.301411 -0.513824
-0.066375 -0.301411 -0.410939
-0.147649 -0.301411 -0.304105
-0.113955 -0.422160 -0.339755
-0.019191 -0.427929 -0.449982
0.099284 -0.431142 -0.551974
0.235692 -0.431142 -0.636278
0.379899 -0.427929 -0.696632
0.520869 -0.422161 -0.732096
-0.060300 -0.554447 -0.367766
0.048873 -0.564274 -0.477034
0.014979 -0.690604 -0.383366
0.180337 -0.567814 -0.573336
0.137058 -0.701015 -0.486777
0.109235 -0.820336 -0.383367
0.325266 -0.564275 -0.647853
0.277115 -0.701016 -0.573336
0.239857 -0.827139 -0.477035
0.215466 -0.934005 -0.367768
0.471821 -0.554448 -0.696633
0.424204 -0.690605 -0.636279
0.382052 -0.820336 -0.551975
0.348498 -0.934005 -0.449984
0.324700 -1.025913 -0.339758
0.609460 -0.540263 -0.721374
0.566654 -0.672009 -0.674379
0.524611 -0.801406 -0.604079
0.486379 -0.919077 -0.513828
0.454246 -1.017974 -0.410944
0.429131 -1.095271 -0.304110
1.406082 0.071724 -0.339758
1.440431 -0.066835 -0.367768
1.459560 -0.221233 -0.383367
1.459560 -0.381588 -0.383366
1.440431 -0.535987 -0.367767
1.406083 -0.674546 -0.339757
1.332807 0.011357 -0.449985
1.357884 -0.138954 -0.477035
1.238847 -0.060879 -0.551976
1.366916 -0.301411 -0.486777
1.253607 -0.219089 -0.573336
1.128490 -0.141057 -0.636279
1.357885 -0.463868 -0.477035
1.253608 -0.383734 -0.573336
1.134278 -0.301411 -0.647853
1.009936 -0.223219 -0.696633
1.332808 -0.614179 -0.449984
1.238848 -0.541944 -0.551974
1.128492 -0.461766 -0.636278
1.009937 -0.379603 -0.696632
0.892499 -0.301411 -0.732096
1.296614 -0.744267 -0.410944
1.212487 -0.683146 -0.513827
1.112390 -0.610422 -0.604079
1.002318 -0.530451 -0.674379
0.890248 -0.449029 -0.721374
0.554383 -1.100540 -0.339759
0.589152 -1.012196 -0.449986
0.628818 -0.900512 -0.551976
0.670970 -0.770780 -0.636280
0.712476 -0.632639 -0.696633
0.750551 -0.496787 -0.732096
0.696776 -1.090389 -0.367769
0.739857 -0.989596 -0.477036
0.849530 -1.060869 -0.383368
0.783847 -0.865659 -0.573337
0.897156 -0.947982 -0.486778
1.002038 -1.011315 -0.383368
0.825266 -0.726731 -0.647854
0.940435 -0.814780 -0.573337
1.048872 -0.889190 -0.477036
1.142970 -0.945409 -0.367768
0.861207 -0.584313 -0.696633
0.975985 -0.671674 -0.636279
1.086341 -0.751852 -0.551975
1.184078 -0.818890 -0.449984
1.264134 -0.869924 -0.339758
3 0 1 2
3 3 4 5
3 0 2 6
3 0 6 7
3 0 7 8
3 3 5 9
3 10 11 12
3 13 14 15
3 16 17 18
3 19 20 21
3 3 9 22
3 10 12 23
3 13 15 24
3 16 18 25
3 19 21 26
3 27 28 29
3 30 31 32
3 33 34 35
3 36 37 38
3 39 40 41
3 42 43 44
3 45 46 42
3 47 48 45
3 49 50 47
3 51 52 49
3 53 54 51
3 41 55 53
3 42 46 43
3 46 56 43
3 45 48 46
3 48 57 46
3 46 57 56
3 57 58 56
3 47 50 48
3 50 59 48
3 48 59 57
3 59 60 57
3 57 60 58
3 60 61 58
3 49 52 50
3 52 62 50
3 50 62 59
3 62 63 59
3 59 63 60
3 63 64 60
3 60 64 61
3 64 65 61
3 51 54 52
3 54 66 52
3 52 66 62
3 66 67 62
3 62 67 63
3 67 68 63
3 63 68 64
3 68 69 64
3 64 69 65
3 69 70 65
3 53 55 54
3 55 71 54
3 54 71 66
3 71 72 66
3 66 72 67
3 72 73 67
3 67 73 68
3 73 74 68
3 68 74 69
3 74 75 69
3 69 75 70
3 75 38 70
3 41 40 55
3 40 76 55
3 55 76 71
3 76 77 71
3 71 77 72
3 77 78 72
3 72 78 73
3 78 79 73
3 73 79 74
3 79 80 74
3 74 80 75
3 80 81 75
3 75 81 38
3 81 36 38
3 43 82 44
3 56 83 43
3 58 84 56
3 61 85 58
3 65 86 61
3 70 87 65
3 38 88 70
3 43 83 82
3 83 89 82
3 56 84 83
3 84 90 83
3 83 90 89
3 90 91 89
3 58 85 84
3 85 92 84
3 84 92 90
3 92 93 90
3 90 93 91
3 93 94 91
3 61 86 85
3 86 95 85
3 85 95 92
3 95 96 92
3 92 96 93
3 96 97 93
3 93 97 94
3 97 98 94
3 65 87 86
3 87 99 86
3 86 99 95
3 99 100 95
3 95 100 96
3 100 101 96
3 96 101 97
3 101 102 97
3 97 102 98
3 102 103 98
3 70 88 87
3 88 104 87
3 87 104 99
3 104 105 99
3 99 105 100
3 105 106 100
3 100 106 101
3 106 107 101
3 101 107 102
3 107 108 102
3 102 108 103
3 108 35 103
3 38 37 88
3 37 109 88
3 88 109 104
3 109 110 104
3 104 110 105
3 110 111 105
3 105 111 106
3 111 112 106
3 106 112 107
3 112 113 107
3 107 113 108
3 113 114 108
3 108 114 35
3 114 33 35
3 82 115 44
3 89 116 82
3 91 117 89
3 94 118 91
3 98 119 94
3 103 120 98
3 35 121 103
3 82 116 115
3 116 122 115
3 89 117 116
3 117 123 116
3 116 123 122
3 123 124 122
3 91 118 117
3 118 125 117
3 117 125 123
3 125 126 123
3 123 126 124
3 126 127 124
3 94 119 118
3 119 128 118
3 118 128 125
3 128 129 125
3 125 129 126
3 129 130 126
3 126 130 127
3 130 131 127
3 98 120 119
3 120 132 119
3 119 132 128
3 132 133 128
3 128 133 129
3 133 134 129
3 129 134 130
3 134 135 130
3 130 135 131
3 135 136 131
3 103 121 120
3 121 137 120
3 120 137 132
3 137 138 132
3 132 138 133
3 138 139 133
3 133 139 134
3 139 140 134
3 134 140 135
3 140 141 135
3 135 141 136
3 141 32 136
3 35 34 121
3 34 142 121
3 121 142 137
3 142 143 137
3 137 143 138
3 143 144 138
3 138 144 139
3 144 145 139
3 139 145 140
3 145 146 140
3 140 146 141
3 146 147 141
3 141 147 32
3 147 30 32
3 115 148 44
3 122 149 115
3 124 150 122
3 127 151 124
3 131 152 127
3 136 153 131
3 32 154 136
3 115 149 148
3 149 155 148
3 122 150 149
3 150 156 149
3 149 156 155
3 156 157 155
3 124 151 150
3 151 158 150
3 150 158 156
3 158 159 156
3 156 159 157
3 159 160 157
3 127 152 151
3 152 161 151
3 151 161 158
3 161 162 158
3 158 162 159
3 162 163 159
3 159 163 160
3 163 164 160
3 131 153 152
3 153 165 152
3 152 165 161
3 165 166 161
3 161 166 162
3 166 167 162
3 162 167 163
3 167 168 163
3 163 168 164
3 168 169 164
3 136 154 153
3 154 170 153
3 153 170 165
3 170 171 165
3 165 171 166
3 171 172 166
3 166 172 167
3 172 173 167
3 167 173 168
3 173 174 168
3 168 174 169
3 174 29 169
3 32 31 154
3 31 175 154
3 154 175 170
3 175 176 170
3 170 176 171
3 176 177 171
3 171 177 172
3 177 178 172
3 172 178 173
3 178 179 173
3 173 179 174
3 179 180 174
3 174 180 29
3 180 27 29
3 148 42 44
3 155 181 148
3 157 182 155
3 160 183 157
3 164 184 160
3 169 185 164
3 29 186 169
3 148 181 42
3 181 45 42
3 155 182 181
3 182 187 181
3 181 187 45
3 187 47 45
3 157 183 182
3 183 188 182
3 182 188 187
3 188 189 187
3 187 189 47
3 189 49 47
3 160 184 183
3 184 190 183
3 183 190 188
3 190 191 188
3 188 191 189
3 191 192 189
3 189 192 49
3 192 51 49
3 164 185 184
3 185 193 184
3 184 193 190
3 193 194 190
3 190 194 191
3 194 195 191
3 191 195 192
3 195 196 192
3 192 196 51
3 196 53 51
3 169 186 185
3 186 197 185
3 185 197 193
3 197 198 193
3 193 198 194
3 198 199 194
3 194 199 195
3 199 200 195
3 195 200 196
3 200 201 196
3 196 201 53
3 201 41 53
3 29 28 186
3 28 202 186
3 186 202 197
3 202 203 197
3 197 203 198
3 203 204 198
3 198 204 199
3 204 205 199
3 199 205 200
3 205 206 200
3 200 206 201
3 206 207 201
3 201 207 41
3 207 39 41
3 208 40 39
3 209 210 208
3 211 212 209
3 213 214 211
3 215 216 213
3 217 218 215
3 26 219 217
3 208 210 40
3 210 76 40
3 209 212 210
3 212 220 210
3 210 220 76
3 220 77 76
3 211 214 212
3 214 221 212
3 212 221 220
3 221 222 220
3 220 222 77
3 222 78 77
3 213 216 214
3 216 223 214
3 214 223 221
3 223 224 221
3 221 224 222
3 224 225 222
3 222 225 78
3 225 79 78
3 215 218 216
3 218 226 216
3 216 226 223
3 226 227 223
3 223 227 224
3 227 228 224
3 224 228 225
3 228 229 225
3 225 229 79
3 229 80 79
3 217 219 218
3 219 230 218
3 218 230 226
3 230 231 226
3 226 231 227
3 231 232 227
3 227 232 228
3 232 233 228
3 228 233 229
3 233 234 229
3 229 234 80
3 234 81 80
3 26 21 219
3 21 235 219
3 219 235 230
3 235 236 230
3 230 236 231
3 236 237 231
3 231 237 232
3 237 238 232
3 232 238 233
3 238 239 233
3 233 239 234
3 239 240 234
3 234 240 81
3 240 36 81
3 241 37 36
3 242 243 241
3 244 245 242
3 246 247 244
3 248 249 246
3 250 251 248
3 25 252 250
3 241 243 37
3 243 109 37
3 242 245 243
3 245 253 243
3 243 253 109
3 253 110 109
3 244 247 245
3 247 254 245
3 245 254 253
3 254 255 253
3 253 255 110
3 255 111 110
3 246 249 247
3 249 256 247
3 247 256 254
3 256 257 254
3 254 257 255
3 257 258 255
3 255 258 111
3 258 112 111
3 248 251 249
3 251 259 249
3 249 259 256
3 259 260 256
3 256 260 257
3 260 261 257
3 257 261 258
3 261 262 258
3 258 262 112
3 262 113 112
3 250 252 251
3 252 263 251
3 251 263 259
3 263 264 259
3 259 264 260
3 264 265 260
3 260 265 261
3 265 266 261
3 261 266 262
3 266 267 262
3 262 267 113
3 267 114 113
3 25 18 252
3 18 268 252
3 252 268 263
3 268 269 263
3 263 269 264
3 269 270 264
3 264 270 265
3 270 271 265
3 265 271 266
3 271 272 266
3 266 272 267
3 272 273 267
3 267 273 114
3 273 33 114
3 274 34 33
3 275 276 274
3 277 278 275
3 279 280 277
3 281 282 279
3 283 284 281
3 24 285 283
3 274 276 34
3 276 142 34
3 275 278 276
3 278 286 276
3 276 286 142
3 286 143 142
3 277 280 278
3 280 287 278
3 278 287 286
3 287 288 286
3 286 288 143
3 288 144 143
3 279 282 280
3 282 289 280
3 280 289 287
3 289 290 287
3 287 290 288
3 290 291 288
3 288 291 144
3 291 145 144
3 281 284 282
3 284 292 282
3 282 292 289
3 292 293 289
3 289 293 290
3 293 294 290
3 290 294 291
3 294 295 291
3 291 295 145
3 295 146 145
3 283 285 284
3 285 296 284
3 284 296 292
3 296 297 292
3 292 297 293
3 297 298 293
3 293 298 294
3 298 299 294
3 294 299 295
3 299 300 295
3 295 300 146
3 300 147 146
3 24 15 285
3 15 301 285
3 285 301 296
3 301 302 296
3 296 302 297
3 302 303 297
3 297 303 298
3 303 304 298
3 298 304 299
3 304 305 299
3 299 305 300
3 305 306 300
3 300 306 147
3 306 30 147
3 307 31 30
3 308 309 307
3 310 311 308
3 312 313 310
3 314 315 312
3 316 317 314
3 23 318 316
3 307 309 31
3 309 175 31
3 308 311 309
3 311 319 309
3 309 319 175
3 319 176 175
3 310 313 311
3 313 320 311
3 311 320 319
3 320 321 319
3 319 321 176
3 321 177 176
3 312 315 313
3 315 322 313
3 313 322 320
3 322 323 320
3 320 323 321
3 323 324 321
3 321 324 177
3 324 178 177
3 314 317 315
3 317 325 315
3 315 325 322
3 325 326 322
3 322 326 323
3 326 327 323
3 323 327 324
3 327 328 324
3 324 328 178
3 328 179 178
3 316 318 317
3 318 329 317
3 317 329 325
3 329 330 325
3 325 330 326
3 330 331 326
3 326 331 327
3 331 332 327
3 327 332 328
3 332 333 328
3 328 333 179
3 333 180 179
3 23 12 318
3 12 334 318
3 318 334 329
3 334 335 329
3 329 335 330
3 335 336 330
3 330 336 331
3 336 337 331
3 331 337 332
3 337 338 332
3 332 338 333
3 338 339 333
3 333 339 180
3 339 27 180
3 340 28 27
3 341 342 340
3 343 344 341
3 345 346 343
3 347 348 345
3 349 350 347
3 22 351 349
3 340 342 28
3 342 202 28
3 341 344 342
3 344 352 342
3 342 352 202
3 352 203 202
3 343 346 344
3 346 353 344
3 344 353 352
3 353 354 352
3 352 354 203
3 354 204 203
3 345 348 346
3 348 355 346
3 346 355 353
3 355 356 353
3 353 356 354
3 356 357 354
3 354 357 204
3 357 205 204
3 347 350 348
3 350 358 348
3 348 358 355
3 358 359 355
3 355 359 356
3 359 360 356
3 356 360 357
3 360 361 357
3 357 361 205
3 361 206 205
3 349 351 350
3 351 362 350
3 350 362 358
3 362 363 358
3 358 363 359
3 363 364 359
3 359 364 360
3 364 365 360
3 360 365 361
3 365 366 361
3 361 366 206
3 366 207 206
3 22 9 351
3 9 367 351
3 351 367 362
3 367 368 362
3 362 368 363
3 368 369 363
3 363 369 364
3 369 370 364
3 364 370 365
3 370 371 365
3 365 371 366
3 371 372 366
3 366 372 207
3 372 39 207
3 240 241 36
3 239 373 240
3 238 374 239
3 237 375 238
3 236 376 237
3 235 377 236
3 21 378 235
3 240 373 241
3 373 242 241
3 239 374 373
3 374 379 373
3 373 379 242
3 379 244 242
3 238 375 374
3 375 380 374
3 374 380 379
3 380 381 379
3 379 381 244
3 381 246 244
3 237 376 375
3 376 382 375
3 375 382 380
3 382 383 380
3 380 383 381
3 383 384 381
3 381 384 246
3 384 248 246
3 236 377 376
3 377 385 376
3 376 385 382
3 385 386 382
3 382 386 383
3 386 387 383
3 383 387 384
3 387 388 384
3 384 388 248
3 388 250 248
3 235 378 377
3 378 389 377
3 377 389 385
3 389 390 385
3 385 390 386
3 390 391 386
3 386 391 387
3 391 392 387
3 387 392 388
3 392 393 388
3 388 393 250
3 393 25 250
3 21 20 378
3 20 394 378
3 378 394 389
3 394 395 389
3 389 395 390
3 395 396 390
3 390 396 391
3 396 397 391
3 391 397 392
3 397 398 392
3 392 398 393
3 398 399 393
3 393 399 25
3 399 16 25
3 273 274 33
3 272 400 273
3 271 401 272
3 270 402 271
3 269 403 270
3 268 404 269
3 18 405 268
3 273 400 274
3 400 275 274
3 272 401 400
3 401 406 400
3 400 406 275
3 406 277 275
3 271 402 401
3 402 407 401
3 401 407 406
3 407 408 406
3 406 408 277
3 408 279 277
3 270 403 402
3 403 409 402
3 402 409 407
3 409 410 407
3 407 410 408
3 410 411 408
3 408 411 279
3 411 281 279
3 269 404 403
3 404 412 403
3 403 412 409
3 412 413 409
3 409 413 410
3 413 414 410
3 410 414 411
3 414 415 411
3 411 415 281
3 415 283 281
3 268 405 404
3 405 416 404
3 404 416 412
3 416 417 412
3 412 417 413
3 417 418 413
3 413 418 414
3 418 419 414
3 414 419 415
3 419 420 415
3 415 420 283
3 420 24 283
3 18 17 405
3 17 421 405
3 405 421 416
3 421 422 416
3 416 422 417
3 422 423 417
3 417 423 418
3 423 424 418
3 418 424 419
3 424 425 419
3 419 425 420
3 425 426 420
3 420 426 24
3 426 13 24
3 306 307 30
3 305 427 306
3 304 428 305
3 303 429 304
3 302 430 303
3 301 431 302
3 15 432 301
3 306 427 307
3 427 308 307
3 305 428 427
3 428 433 427
3 427 433 308
3 433 310 308
3 304 429 428
3 429 434 428
3 428 434 433
3 434 435 433
3 433 435 310
3 435 312 310
3 303 430 429
3 430 436 429
3 429 436 434
3 436 437 434
3 434 437 435
3 437 438 435
3 435 438 312
3 438 314 312
3 302 431 430
3 431 439 430
3 430 439 436
3 439 440 436
3 436 440 437
3 440 441 437
3 437 441 438
3 441 442 438
3 438 442 314
3 442 316 314
3 301 432 431
3 432 443 431
3 431 443 439
3 443 444 439
3 439 444 440
3 444 445 440
3 440 445 441
3 445 446 441
3 441 446 442
3 446 447 442
3 442 447 316
3 447 23 316
3 15 14 432
3 14 448 432
3 432 448 443
3 448 449 443
3 443 449 444
3 449 450 444
3 444 450 445
3 450 451 445
3 445 451 446
3 451 452 446
3 446 452 447
3 452 453 447
3 447 453 23
3 453 10 23
3 339 340 27
3 338 454 339
3 337 455 338
3 336 456 337
3 335 457 336
3 334 458 335
3 12 459 334
3 339 454 340
3 454 341 340
3 338 455 454
3 455 460 454
3 454 460 341
3 460 343 341
3 337 456 455
3 456 461 455
3 455 461 460
3 461 462 460
3 460 462 343
3 462 345 343
3 336 457 456
3 457 463 456
3 456 463 461
3 463 464 461
3 461 464 462
3 464 465 462
3 462 465 345
3 465 347 345
3 335 458 457
3 458 466 457
3 457 466 463
3 466 467 463
3 463 467 464
3 467 468 464
3 464 468 465
3 468 469 465
3 465 469 347
3 469 349 347
3 334 459 458
3 459 470 458
3 458 470 466
3 470 471 466
3 466 471 467
3 471 472 467
3 467 472 468
3 472 473 468
3 468 473 469
3 473 474 469
3 469 474 349
3 474 22 349
3 12 11 459
3 11 475 459
3 459 475 470
3 475 476 470
3 470 476 471
3 476 477 471
3 471 477 472
3 477 478 472
3 472 478 473
3 478 479 473
3 473 479 474
3 479 480 474
3 474 480 22
3 480 3 22
3 372 208 39
3 371 481 372
3 370 482 371
3 369 483 370
3 368 484 369
3 367 485 368
3 9 486 367
3 372 481 208
3 481 209 208
3 371 482 481
3 482 487 481
3 481 487 209
3 487 211 209
3 370 483 482
3 483 488 482
3 482 488 487
3 488 489 487
3 487 489 211
3 489 213 211
3 369 484 483
3 484 490 483
3 483 490 488
3 490 491 488
3 488 491 489
3 491 492 489
3 489 492 213
3 492 215 213
3 368 485 484
3 485 493 484
3 484 493 490
3 493 494 490
3 490 494 491
3 494 495 491
3 491 495 492
3 495 496 492
3 492 496 215
3 496 217 215
3 367 486 485
3 486 497 485
3 485 497 493
3 497 498 493
3 493 498 494
3 498 499 494
3 494 499 495
3 499 500 495
3 495 500 496
3 500 501 496
3 496 501 217
3 501 26 217
3 9 5 486
3 5 502 486
3 486 502 497
3 502 503 497
3 497 503 498
3 503 504 498
3 498 504 499
3 504 505 499
3 499 505 500
3 505 506 500
3 500 506 501
3 506 507 501
3 501 507 26
3 507 19 26
3 508 20 19
3 509 510 508
3 511 512 509
3 513 514 511
3 515 516 513
3 517 518 515
3 8 519 517
3 508 510 20
3 510 394 20
3 509 512 510
3 512 520 510
3 510 520 394
3 520 395 394
3 511 514 512
3 514 521 512
3 512 521 520
3 521 522 520
3 520 522 395
3 522 396 395
3 513 516 514
3 516 523 514
3 514 523 521
3 523 524 521
3 521 524 522
3 524 525 522
3 522 525 396
3 525 397 396
3 515 518 516
3 518 526 516
3 516 526 523
3 526 527 523
3 523 527 524
3 527 528 524
3 524 528 525
3 528 529 525
3 525 529 397
3 529 398 397
3 517 519 518
3 519 530 518
3 518 530 526
3 530 531 526
3 526 531 527
3 531 532 527
3 527 532 528
3 532 533 528
3 528 533 529
3 533 534 529
3 529 534 398
3 534 399 398
3 8 7 519
3 7 535 519
3 519 535 530
3 535 536 530
3 530 536 531
3 536 537 531
3 531 537 532
3 537 538 532
3 532 538 533
3 538 539 533
3 533 539 534
3 539 540 534
3 534 540 399
3 540 16 399
3 540 17 16
3 539 541 540
3 538 542 539
3 537 543 538
3 536 544 537
3 535 545 536
3 7 546 535
3 540 541 17
3 541 421 17
3 539 542 541
3 542 547 541
3 541 547 421
3 547 422 421
3 538 543 542
3 543 548 542
3 542 548 547
3 548 549 547
3 547 549 422
3 549 423 422
3 537 544 543
3 544 550 543
3 543 550 548
3 550 551 548
3 548 551 549
3 551 552 549
3 549 552 423
3 552 424 423
3 536 545 544
3 545 553 544
3 544 553 550
3 553 554 550
3 550 554 551
3 554 555 551
3 551 555 552
3 555 556 552
3 552 556 424
3 556 425 424
3 535 546 545
3 546 557 545
3 545 557 553
3 557 558 553
3 553 558 554
3 558 559 554
3 554 559 555
3 559 560 555
3 555 560 556
3 560 561 556
3 556 561 425
3 561 426 425
3 7 6 546
3 6 562 546
3 546 562 557
3 562 563 557
3 557 563 558
3 563 564 558
3 558 564 559
3 564 565 559
3 559 565 560
3 565 566 560
3 560 566 561
3 566 567 561
3 561 567 426
3 567 13 426
3 567 14 13
3 566 568 567
3 565 569 566
3 564 570 565
3 563 571 564
3 562 572 563
3 6 573 562
3 567 568 14
3 568 448 14
3 566 569 568
3 569 574 568
3 568 574 448
3 574 449 448
3 565 570 569
3 570 575 569
3 569 575 574
3 575 576 574
3 574 576 449
3 576 450 449
3 564 571 570
3 571 577 570
3 570 577 575
3 577 578 575
3 575 578 576
3 578 579 576
3 576 579 450
3 579 451 450
3 563 572 571
3 572 580 571
3 571 580 577
3 580 581 577
3 577 581 578
3 581 582 578
3 578 582 579
3 582 583 579
3 579 583 451
3 583 452 451
3 562 573 572
3 573 584 572
3 572 584 580
3 584 585 580
3 580 585 581
3 585 586 581
3 581 586 582
3 586 587 582
3 582 587 583
3 587 588 583
3 583 588 452
3 588 453 452
3 6 2 573
3 2 589 573
3 573 589 584
3 589 590 584
3 584 590 585
3 590 591 585
3 585 591 586
3 591 592 586
3 586 592 587
3 592 593 587
3 587 593 588
3 593 594 588
3 588 594 453
3 594 10 453
3 507 508 19
3 506 595 507
3 505 596 506
3 504 597 505
3 503 598 504
3 502 599 503
3 5 600 502
3 507 595 508
3 595 509 508
3 506 596 595
3 596 601 595
3 595 601 509
3 601 511 509
3 505 597 596
3 597 602 596
3 596 602 601
3 602 603 601
3 601 603 511
3 603 513 511
3 504 598 597
3 598 604 597
3 597 604 602
3 604 605 602
3 602 605 603
3 605 606 603
3 603 606 513
3 606 515 513
3 503 599 598
3 599 607 598
3 598 607 604
3 607 608 604
3 604 608 605
3 608 609 605
3 605 609 606
3 609 610 606
3 606 610 515
3 610 517 515
3 502 600 599
3 600 611 599
3 599 611 607
3 611 612 607
3 607 612 608
3 612 613 608
3 608 613 609
3 613 614 609
3 609 614 610
3 614 615 610
3 610 615 517
3 615 8 517
3 5 4 600
3 4 616 600
3 600 616 611
3 616 617 611
3 611 617 612
3 617 618 612
3 612 618 613
3 618 619 613
3 613 619 614
3 619 620 614
3 614 620 615
3 620 1 615
3 615 1 8
3 1 0 8
3 594 11 10
3 593 621 594
3 592 622 593
3 591 623 592
3 590 624 591
3 589 625 590
3 2 626 589
3 594 621 11
3 621 475 11
3 593 622 621
3 622 627 621
3 621 627 475
3 627 476 475
3 592 623 622
3 623 628 622
3 622 628 627
3 628 629 627
3 627 629 476
3 629 477 476
3 591 624 623
3 624 630 623
3 623 630 628
3 630 631 628
3 628 631 629
3 631 632 629
3 629 632 477
3 632 478 477
3 590 625 624
3 625 633 624
3 624 633 630
3 633 634 630
3 630 634 631
3 634 635 631
3 631 635 632
3 635 636 632
3 632 636 478
3 636 479 478
3 589 626 625
3 626 637 625
3 625 637 633
3 637 638 633
3 633 638 634
3 638 639 634
3 634 639 635
3 639 640 635
3 635 640 636
3 640 641 636
3 636 641 479
3 641 480 479
3 2 1 626
3 1 620 626
3 626 620 637
3 620 619 637
3 637 619 638
3 619 618 638
3 638 618 639
3 618 617 639
3 639 617 640
3 617 616 640
3 640 616 641
3 616 4 641
3 641 4 480
3 4 3 480
